<svg width="25" height="24" viewBox="0 0 25 24" fill="none" xmlns="http://www.w3.org/2000/svg">
<path d="M10.5 16.95H6.71C3.34 16.95 2.5 16.11 2.5 12.74V6.74003C2.5 3.37003 3.34 2.53003 6.71 2.53003H17.24C20.61 2.53003 21.45 3.37003 21.45 6.74003" stroke="#B8B8B8" stroke-width="1.5" stroke-linecap="round" stroke-linejoin="round"/>
<path d="M10.5 21.47V16.95" stroke="#B8B8B8" stroke-width="1.5" stroke-linecap="round" stroke-linejoin="round"/>
<path d="M2.5 12.95H10.5" stroke="#B8B8B8" stroke-width="1.5" stroke-linecap="round" stroke-linejoin="round"/>
<path d="M7.24001 21.47H10.5" stroke="#B8B8B8" stroke-width="1.5" stroke-linecap="round" stroke-linejoin="round"/>
<path d="M22.5 12.8V18.51C22.5 20.88 21.91 21.47 19.54 21.47H15.99C13.62 21.47 13.03 20.88 13.03 18.51V12.8C13.03 10.43 13.62 9.84003 15.99 9.84003H19.54C21.91 9.84003 22.5 10.43 22.5 12.8Z" stroke="#B8B8B8" stroke-width="1.5" stroke-linecap="round" stroke-linejoin="round"/>
<path d="M17.7445 18.25H17.7535" stroke="#B8B8B8" stroke-width="2" stroke-linecap="round" stroke-linejoin="round"/>
</svg>
